<?xml version="1.0" standalone="no"?>
<!DOCTYPE svg PUBLIC "-//W3C//DTD SVG 20010904//EN"
 "http://www.w3.org/TR/2001/REC-SVG-20010904/DTD/svg10.dtd">
<svg version="1.0" xmlns="http://www.w3.org/2000/svg"
 width="160.000000pt" height="160.000000pt" viewBox="0 0 160.000000 160.000000"
 preserveAspectRatio="xMidYMid meet">
<metadata>
Created by potrace 1.11, written by Peter Selinger 2001-2013
</metadata>
<g transform="translate(0.000000,160.000000) scale(0.100000,-0.100000)"
fill="#000000" stroke="none">
<path d="M1177 1544 c-2 -2 -21 -6 -43 -8 -21 -3 -50 -8 -64 -11 -14 -3 -30
-7 -37 -9 -7 -1 -16 -5 -19 -9 -4 -4 -13 -7 -21 -7 -17 0 -147 -62 -151 -72
-2 -5 -9 -8 -14 -8 -11 0 -102 -65 -130 -93 -12 -13 -17 -12 -37 9 -18 19 -27
22 -37 13 -12 -10 -10 -16 11 -35 14 -13 25 -27 26 -31 18 -256 17 -292 -3
-368 -17 -62 -64 -162 -73 -153 -2 2 -6 32 -9 68 -7 74 -9 87 -28 150 -9 28
-13 88 -12 161 2 189 -26 341 -66 354 -61 19 -175 -64 -215 -155 -24 -57 -22
-55 -39 -41 -29 24 -35 1 -11 -36 14 -20 25 -43 26 -52 1 -19 2 -27 24 -106 9
-33 35 -103 59 -155 41 -87 57 -160 36 -160 -4 0 -7 11 -6 25 3 24 -27 85 -41
85 -5 0 -19 16 -32 36 -22 32 -25 34 -35 17 -13 -23 -10 -156 4 -182 12 -24
-4 -58 -32 -66 -36 -12 -40 -31 -21 -91 21 -68 40 -82 116 -87 33 -2 64 -10
71 -18 7 -8 26 -48 42 -88 41 -106 143 -202 229 -215 21 -4 39 -8 40 -9 1 -1
6 -23 12 -48 7 -36 7 -53 -4 -72 -9 -18 -10 -28 -2 -32 6 -4 13 -4 16 -1 3 3
12 1 19 -5 19 -15 28 10 16 42 -10 26 3 89 18 89 5 0 13 -6 17 -14 13 -22 117
-136 125 -136 4 0 2 15 -3 32 -5 18 -9 34 -9 36 0 2 18 -11 40 -29 33 -27 42
-30 55 -19 21 18 19 27 -9 34 -51 13 -70 162 -30 243 12 26 29 55 36 64 36 43
130 65 177 40 24 -13 28 -8 35 49 24 189 63 277 176 390 l80 80 -6 62 c-18
181 8 302 93 435 18 29 33 56 33 61 0 16 -25 24 -125 38 -55 7 -262 13 -268 8z"/>
</g>
</svg>
